<svg width="55" height="63" viewBox="0 0 55 63" fill="none" xmlns="http://www.w3.org/2000/svg">
<path fill-rule="evenodd" clip-rule="evenodd" d="M7.75368 14.0037C6.875 14.8824 6.875 16.2966 6.875 19.125V19.9999C7.05897 19.9997 7.24516 20.0502 7.41188 20.1563L27.5 32.9397L47.5881 20.1563C47.7548 20.0502 47.941 19.9997 48.125 19.9999V19.125C48.125 16.2966 48.125 14.8824 47.2463 14.0037C46.3676 13.125 44.9534 13.125 42.125 13.125H12.875C10.0466 13.125 8.63236 13.125 7.75368 14.0037ZM48.125 22.1853L28.5737 34.627C27.9186 35.0439 27.0814 35.0439 26.4263 34.627L6.875 22.1853V43.875C6.875 46.7034 6.875 48.1176 7.75368 48.9963C8.63236 49.875 10.0466 49.875 12.875 49.875H42.125C44.9534 49.875 46.3676 49.875 47.2463 48.9963C48.125 48.1176 48.125 46.7034 48.125 43.875V22.1853Z" fill="#3183FF"/>
</svg>
