<svg width="32" height="33" viewBox="0 0 32 33" fill="none" xmlns="http://www.w3.org/2000/svg">
<path d="M2.51389 6.06051L6.70315 1.74033C7.09601 1.3352 7.74609 1.3352 8.13895 1.74034L13.4828 7.25122C13.859 7.63911 13.859 8.25563 13.4828 8.64351L9.93548 12.3017C9.437 12.8158 9.31316 13.5867 9.62556 14.231L9.70338 14.3915C11.5016 18.1004 14.454 21.1264 18.1175 23.0154C18.7666 23.35 19.5582 23.2204 20.0666 22.6961L23.5453 19.1088C23.9381 18.7036 24.5882 18.7036 24.9811 19.1088L30.3249 24.6196C30.7011 25.0075 30.7011 25.624 30.3249 26.0119L26.3136 30.1487C24.1869 32.3418 20.7519 32.5869 18.3354 30.7179L11.7031 25.5882C9.97996 24.2555 8.45487 22.6847 7.17358 20.9229L1.96888 13.7664C0.252866 11.4069 0.482862 8.15501 2.51389 6.06051Z" fill="#3183FF" stroke="white"/>
</svg>
